<?xml version="1.0" encoding="UTF-8"?>
<!DOCTYPE svg PUBLIC "-//W3C//DTD SVG 1.1//EN" "http://www.w3.org/Graphics/SVG/1.1/DTD/svg11.dtd">
<svg xmlns="http://www.w3.org/2000/svg" version="1.1" width="143px" height="130px" style="shape-rendering:geometricPrecision; text-rendering:geometricPrecision; image-rendering:optimizeQuality; fill-rule:evenodd; clip-rule:evenodd" xmlns:xlink="http://www.w3.org/1999/xlink">
<g><path style="opacity:0.919" fill="#000000" d="M 61.5,4.5 C 97.9388,2.78166 120.772,19.4483 130,54.5C 133.228,88.2234 119.062,111.057 87.5,123C 60.5786,129.249 38.4119,121.749 21,100.5C 5.34584,75.4044 6.01251,50.7377 23,26.5C 33.3169,14.5963 46.1502,7.26302 61.5,4.5 Z M 62.5,16.5 C 91.8086,15.0537 110.309,28.387 118,56.5C 120.226,84.5643 108.06,103.064 81.5,112C 56.4119,116.039 37.9119,106.872 26,84.5C 17.4061,60.7043 22.9061,40.871 42.5,25C 48.8932,21.2662 55.5598,18.4329 62.5,16.5 Z"/></g>
<g><path style="opacity:0.838" fill="#000000" d="M 64.5,27.5 C 68.5,27.5 72.5,27.5 76.5,27.5C 76.5,32.1667 76.5,36.8333 76.5,41.5C 72.5,41.5 68.5,41.5 64.5,41.5C 64.5,36.8333 64.5,32.1667 64.5,27.5 Z"/></g>
<g><path style="opacity:0.934" fill="#000000" d="M 64.5,46.5 C 68.5,46.5 72.5,46.5 76.5,46.5C 76.5,64.8333 76.5,83.1667 76.5,101.5C 72.5,101.5 68.5,101.5 64.5,101.5C 64.5,83.1667 64.5,64.8333 64.5,46.5 Z"/></g>
</svg>
