<?xml version="1.0" encoding="UTF-8"?>
<!DOCTYPE svg PUBLIC "-//W3C//DTD SVG 1.1//EN" "http://www.w3.org/Graphics/SVG/1.1/DTD/svg11.dtd">
<svg xmlns="http://www.w3.org/2000/svg" version="1.1" width="109px" height="130px" style="shape-rendering:geometricPrecision; text-rendering:geometricPrecision; image-rendering:optimizeQuality; fill-rule:evenodd; clip-rule:evenodd" xmlns:xlink="http://www.w3.org/1999/xlink">
<g><path style="opacity:0.969" fill="#020202" d="M 88.5,87.5 C 84.1667,87.5 79.8333,87.5 75.5,87.5C 75.5,86.1667 75.5,84.8333 75.5,83.5C 62.1667,83.5 48.8333,83.5 35.5,83.5C 35.5,85.5 35.5,87.5 35.5,89.5C 46.8333,90.1667 58.1667,90.8333 69.5,91.5C 66.6341,93.5459 64.4675,96.2126 63,99.5C 62.0816,105.979 62.5816,112.312 64.5,118.5C 47.83,118.667 31.1633,118.5 14.5,118C 12.2739,116.773 10.7739,114.939 10,112.5C 9.33333,80.1667 9.33333,47.8333 10,15.5C 10.7739,13.0607 12.2739,11.2273 14.5,10C 29.9261,9.03247 45.2594,9.3658 60.5,11C 70.0305,20.1963 79.1971,29.6963 88,39.5C 88.4999,55.4965 88.6666,71.4965 88.5,87.5 Z M 61.5,18.5 C 67.6314,24.1305 73.6314,29.9638 79.5,36C 73.8333,36.6667 68.1667,36.6667 62.5,36C 61.5251,30.2588 61.1918,24.4254 61.5,18.5 Z"/></g>
<g><path style="opacity:1" fill="#f2f2f2" d="M 24.5,48.5 C 29.5011,47.6714 31.6678,49.6714 31,54.5C 28.2873,58.4319 25.6206,58.4319 23,54.5C 22.2516,52.1599 22.7516,50.1599 24.5,48.5 Z"/></g>
<g><path style="opacity:1" fill="#f5f5f5" d="M 35.5,49.5 C 48.8333,49.5 62.1667,49.5 75.5,49.5C 75.5,51.5 75.5,53.5 75.5,55.5C 62.1667,55.5 48.8333,55.5 35.5,55.5C 35.5,53.5 35.5,51.5 35.5,49.5 Z"/></g>
<g><path style="opacity:1" fill="#e8e8e8" d="M 24.5,65.5 C 30.487,64.9773 32.487,67.4773 30.5,73C 22.8394,75.1683 20.8394,72.6683 24.5,65.5 Z"/></g>
<g><path style="opacity:1" fill="#ebebeb" d="M 35.5,66.5 C 48.8333,66.5 62.1667,66.5 75.5,66.5C 75.5,68.5 75.5,70.5 75.5,72.5C 62.1667,72.5 48.8333,72.5 35.5,72.5C 35.5,70.5 35.5,68.5 35.5,66.5 Z"/></g>
<g><path style="opacity:1" fill="#fafafa" d="M 24.5,83.5 C 30.1581,82.6794 31.8248,84.846 29.5,90C 23.741,91.1387 22.0744,88.972 24.5,83.5 Z"/></g>
<g><path style="opacity:0.918" fill="#ebebeb" d="M 88.5,87.5 C 101.162,93.9879 104.829,103.821 99.5,117C 101.931,118.432 101.931,119.932 99.5,121.5C 97.2034,119.706 95.0367,117.706 93,115.5C 92.235,113.934 92.4017,112.601 93.5,111.5C 94.1451,112.812 95.1451,113.812 96.5,114.5C 101.216,104.072 98.5495,96.2389 88.5,91C 69.6367,88.8646 62.47,97.0313 67,115.5C 72.6429,123.521 80.1429,125.688 89.5,122C 88.3636,120.855 87.3636,119.688 86.5,118.5C 87.2506,117.427 88.2506,117.26 89.5,118C 91.7059,120.037 93.7059,122.203 95.5,124.5C 94.516,127.07 93.3493,127.07 92,124.5C 81.1767,129.667 72.01,127.667 64.5,118.5C 62.5816,112.312 62.0816,105.979 63,99.5C 64.4675,96.2126 66.6341,93.5459 69.5,91.5C 70.2891,91.2172 70.9558,90.7172 71.5,90C 59.5046,89.5001 47.5046,89.3335 35.5,89.5C 35.5,87.5 35.5,85.5 35.5,83.5C 48.8333,83.5 62.1667,83.5 75.5,83.5C 75.5,84.8333 75.5,86.1667 75.5,87.5C 79.8333,87.5 84.1667,87.5 88.5,87.5 Z"/></g>
<g><path style="opacity:1" fill="#818181" d="M 35.5,89.5 C 47.5046,89.3335 59.5046,89.5001 71.5,90C 70.9558,90.7172 70.2891,91.2172 69.5,91.5C 58.1667,90.8333 46.8333,90.1667 35.5,89.5 Z"/></g>
<g><path style="opacity:1" fill="#0b0b0b" d="M 93.5,111.5 C 94.1582,110.207 94.4915,108.707 94.5,107C 94.664,104.456 93.9973,102.29 92.5,100.5C 91.2329,96.7427 88.5662,94.5761 84.5,94C 81.5178,93.2971 78.8512,93.7971 76.5,95.5C 73.5,96.5 71.5,98.5 70.5,101.5C 67.8333,105.167 67.8333,108.833 70.5,112.5C 72.5942,117.479 76.4275,120.145 82,120.5C 83.7275,120.101 85.2275,119.434 86.5,118.5C 87.3636,119.688 88.3636,120.855 89.5,122C 80.1429,125.688 72.6429,123.521 67,115.5C 62.47,97.0313 69.6367,88.8646 88.5,91C 98.5495,96.2389 101.216,104.072 96.5,114.5C 95.1451,113.812 94.1451,112.812 93.5,111.5 Z"/></g>
<g><path style="opacity:0.976" fill="#222222" d="M 76.5,95.5 C 82.8494,94.3137 88.1828,95.9803 92.5,100.5C 93.9973,102.29 94.664,104.456 94.5,107C 94.4915,108.707 94.1582,110.207 93.5,111.5C 92.4017,112.601 92.235,113.934 93,115.5C 95.0367,117.706 97.2034,119.706 99.5,121.5C 99.5,122.5 99.5,123.5 99.5,124.5C 98.1667,124.5 96.8333,124.5 95.5,124.5C 93.7059,122.203 91.7059,120.037 89.5,118C 88.2506,117.26 87.2506,117.427 86.5,118.5C 85.2275,119.434 83.7275,120.101 82,120.5C 76.4275,120.145 72.5942,117.479 70.5,112.5C 69.3252,108.85 69.3252,105.183 70.5,101.5C 71.5,98.5 73.5,96.5 76.5,95.5 Z"/></g>
<g><path style="opacity:1" fill="#949494" d="M 92.5,100.5 C 88.1828,95.9803 82.8494,94.3137 76.5,95.5C 78.8512,93.7971 81.5178,93.2971 84.5,94C 88.5662,94.5761 91.2329,96.7427 92.5,100.5 Z"/></g>
<g><path style="opacity:1" fill="#f8f8f8" d="M 77.5,97.5 C 87.4921,96.3271 91.9921,100.66 91,110.5C 88.0812,116.025 83.5812,117.858 77.5,116C 76.0692,115.535 74.9025,114.701 74,113.5C 71.1573,107.137 72.324,101.804 77.5,97.5 Z"/></g>
<g><path style="opacity:1" fill="#262626" d="M 78.5,99.5 C 79.3764,99.3691 80.0431,99.7025 80.5,100.5C 77.9272,102.642 76.0938,105.308 75,108.5C 73.291,104.559 74.4577,101.559 78.5,99.5 Z"/></g>
<g><path style="opacity:1" fill="#7c7c7c" d="M 70.5,101.5 C 69.3252,105.183 69.3252,108.85 70.5,112.5C 67.8333,108.833 67.8333,105.167 70.5,101.5 Z"/></g>
</svg>
