<?xml version="1.0" encoding="UTF-8"?>
<!DOCTYPE svg PUBLIC "-//W3C//DTD SVG 1.1//EN" "http://www.w3.org/Graphics/SVG/1.1/DTD/svg11.dtd">
<svg xmlns="http://www.w3.org/2000/svg" version="1.1" width="103px" height="130px" style="shape-rendering:geometricPrecision; text-rendering:geometricPrecision; image-rendering:optimizeQuality; fill-rule:evenodd; clip-rule:evenodd" xmlns:xlink="http://www.w3.org/1999/xlink">
<g><path style="opacity:0.973" fill="#040404" d="M 85.5,91.5 C 75.9993,88.8316 68.8327,91.8316 64,100.5C 63.501,104.821 63.3343,109.154 63.5,113.5C 49.496,113.667 35.496,113.5 21.5,113C 11.3333,110.833 5.16667,104.667 3,94.5C 2.33333,73.1667 2.33333,51.8333 3,30.5C 4.64749,21.5207 9.81416,15.6874 18.5,13C 35.8333,12.3333 53.1667,12.3333 70.5,13C 77.5731,15.0724 82.4064,19.5724 85,26.5C 85.5,48.1641 85.6666,69.8308 85.5,91.5 Z"/></g>
<g><path style="opacity:1" fill="#ededed" d="M 17.5,40.5 C 35.5,40.5 53.5,40.5 71.5,40.5C 71.5,42.8333 71.5,45.1667 71.5,47.5C 53.5,47.5 35.5,47.5 17.5,47.5C 17.5,45.1667 17.5,42.8333 17.5,40.5 Z"/></g>
<g><path style="opacity:1" fill="#ededed" d="M 17.5,52.5 C 35.5,52.5 53.5,52.5 71.5,52.5C 71.5,54.8333 71.5,57.1667 71.5,59.5C 53.5,59.5 35.5,59.5 17.5,59.5C 17.5,57.1667 17.5,54.8333 17.5,52.5 Z"/></g>
<g><path style="opacity:1" fill="#bfbfbf" d="M 17.5,66.5 C 35.3256,65.5032 53.3256,65.1699 71.5,65.5C 71.5,67.8333 71.5,70.1667 71.5,72.5C 53.3256,72.8301 35.3256,72.4968 17.5,71.5C 35.1667,71.5 52.8333,71.5 70.5,71.5C 70.5,69.8333 70.5,68.1667 70.5,66.5C 52.8333,66.5 35.1667,66.5 17.5,66.5 Z"/></g>
<g><path style="opacity:1" fill="#fefffe" d="M 17.5,66.5 C 35.1667,66.5 52.8333,66.5 70.5,66.5C 70.5,68.1667 70.5,69.8333 70.5,71.5C 52.8333,71.5 35.1667,71.5 17.5,71.5C 17.5,69.8333 17.5,68.1667 17.5,66.5 Z"/></g>
<g><path style="opacity:1" fill="#fdfdfd" d="M 17.5,78.5 C 35.5,78.5 53.5,78.5 71.5,78.5C 71.5,80.5 71.5,82.5 71.5,84.5C 53.5,84.5 35.5,84.5 17.5,84.5C 17.5,82.5 17.5,80.5 17.5,78.5 Z"/></g>
<g><path style="opacity:0.991" fill="#efeeef" d="M 85.5,91.5 C 87.5138,91.3915 89.1805,92.0582 90.5,93.5C 86.8564,97.9883 83.3564,102.655 80,107.5C 77.891,103.601 75.0577,102.768 71.5,105C 74.8447,108.023 77.1781,111.689 78.5,116C 79.3317,116.688 79.9984,116.521 80.5,115.5C 83.9676,108.209 88.6343,101.876 94.5,96.5C 99.4169,106.002 98.0836,114.502 90.5,122C 80.8286,127.292 72.3286,125.792 65,117.5C 64.2086,116.255 63.7086,114.922 63.5,113.5C 63.3343,109.154 63.501,104.821 64,100.5C 68.8327,91.8316 75.9993,88.8316 85.5,91.5 Z"/></g>
<g><path style="opacity:0.942" fill="#150c1c" d="M 94.5,96.5 C 88.6343,101.876 83.9676,108.209 80.5,115.5C 79.9984,116.521 79.3317,116.688 78.5,116C 77.1781,111.689 74.8447,108.023 71.5,105C 75.0577,102.768 77.891,103.601 80,107.5C 83.3564,102.655 86.8564,97.9883 90.5,93.5C 92.6704,92.2515 95.0037,91.2515 97.5,90.5C 98.1667,90.8333 98.8333,91.1667 99.5,91.5C 97.4788,92.8545 95.8121,94.5212 94.5,96.5 Z"/></g>
<g><path style="opacity:1" fill="#18101e" d="M 76.5,92.5 C 80.1669,92.1636 83.5002,92.997 86.5,95C 83.0244,96.2542 79.3577,96.9209 75.5,97C 69.0919,100.323 66.9252,105.489 69,112.5C 73.6227,119.94 79.7894,121.44 87.5,117C 91.3159,113.119 92.3159,108.619 90.5,103.5C 91.2888,101.512 92.4555,101.179 94,102.5C 95.4482,117.052 88.9482,123.552 74.5,122C 66.3901,117.936 63.5567,111.436 66,102.5C 68.1059,97.5573 71.6059,94.224 76.5,92.5 Z"/></g>
</svg>
