<?xml version="1.0" encoding="UTF-8"?>
<!DOCTYPE svg PUBLIC "-//W3C//DTD SVG 1.1//EN" "http://www.w3.org/Graphics/SVG/1.1/DTD/svg11.dtd">
<svg xmlns="http://www.w3.org/2000/svg" version="1.1" width="145px" height="130px" style="shape-rendering:geometricPrecision; text-rendering:geometricPrecision; image-rendering:optimizeQuality; fill-rule:evenodd; clip-rule:evenodd" xmlns:xlink="http://www.w3.org/1999/xlink">
<g><path style="opacity:0.982" fill="#f9f9f9" d="M 91.5,22.5 C 92.2083,26.7847 92.7083,31.118 93,35.5C 108.045,46.9634 113.378,61.9634 109,80.5C 107.804,85.2234 105.804,89.5568 103,93.5C 103.537,69.3731 91.8706,55.7065 68,52.5C 52.1486,53.6954 41.482,61.6954 36,76.5C 34.8763,82.1027 34.2096,87.7694 34,93.5C 21.2455,71.2797 24.5788,51.9464 44,35.5C 44.2917,31.118 44.7917,26.7847 45.5,22.5C 49.4549,12.0091 57.1216,6.6758 68.5,6.5C 74.4859,6.49485 79.8193,8.32818 84.5,12C 87.7224,14.9556 90.0558,18.4556 91.5,22.5 Z"/></g>
<g><path style="opacity:1" fill="#040404" d="M 62.5,11.5 C 82.3232,10.825 90.1566,20.1584 86,39.5C 80.8883,48.7558 73.055,52.2558 62.5,50C 50.045,43.9669 46.2117,34.4669 51,21.5C 53.9835,17.1062 57.8168,13.7729 62.5,11.5 Z"/></g>
<g><path style="opacity:0.996" fill="#040404" d="M 45.5,22.5 C 44.7917,26.7847 44.2917,31.118 44,35.5C 24.5788,51.9464 21.2455,71.2797 34,93.5C 34.2096,87.7694 34.8763,82.1027 36,76.5C 41.482,61.6954 52.1486,53.6954 68,52.5C 91.8706,55.7065 103.537,69.3731 103,93.5C 105.804,89.5568 107.804,85.2234 109,80.5C 113.378,61.9634 108.045,46.9634 93,35.5C 92.7083,31.118 92.2083,26.7847 91.5,22.5C 114.565,34.9651 124.065,54.2984 120,80.5C 110.471,111.194 89.6375,124.694 57.5,121C 31.4125,113.518 17.4125,96.185 15.5,69C 16.2946,52.4119 22.9612,38.7452 35.5,28C 38.7271,25.8882 42.0604,24.0549 45.5,22.5 Z"/></g>
<g><path style="opacity:1" fill="#717171" d="M 91.5,104.5 C 76.1667,103.167 60.8333,103.167 45.5,104.5C 44.7109,104.217 44.0442,103.717 43.5,103C 60.1667,102.333 76.8333,102.333 93.5,103C 92.9558,103.717 92.2891,104.217 91.5,104.5 Z"/></g>
<g><path style="opacity:1" fill="#f7f7f7" d="M 45.5,104.5 C 60.8333,103.167 76.1667,103.167 91.5,104.5C 76.1487,113.831 60.8154,113.831 45.5,104.5 Z"/></g>
</svg>
