<?xml version="1.0" encoding="UTF-8"?>
<!DOCTYPE svg PUBLIC "-//W3C//DTD SVG 1.1//EN" "http://www.w3.org/Graphics/SVG/1.1/DTD/svg11.dtd">
<svg xmlns="http://www.w3.org/2000/svg" version="1.1" width="125px" height="142px" style="shape-rendering:geometricPrecision; text-rendering:geometricPrecision; image-rendering:optimizeQuality; fill-rule:evenodd; clip-rule:evenodd" xmlns:xlink="http://www.w3.org/1999/xlink">
<g><path style="opacity:0.809" fill="#f0f0f0" d="M 14.5,5.5 C 16.5996,5.47724 18.4329,6.14391 20,7.5C 21,6.83333 22,6.16667 23,5.5C 24.3333,6.16667 25.6667,6.83333 27,7.5C 28,6.83333 29,6.16667 30,5.5C 32.3333,8.16667 34.6667,8.16667 37,5.5C 39.3333,8.16667 41.6667,8.16667 44,5.5C 46.3333,8.16667 48.6667,8.16667 51,5.5C 53.3333,8.16667 55.6667,8.16667 58,5.5C 59,6.16667 60,6.83333 61,7.5C 62.3333,6.83333 63.6667,6.16667 65,5.5C 66,6.16667 67,6.83333 68,7.5C 69.3333,6.83333 70.6667,6.16667 72,5.5C 73,6.16667 74,6.83333 75,7.5C 76.3333,6.83333 77.6667,6.16667 79,5.5C 80,6.16667 81,6.83333 82,7.5C 83.3333,6.83333 84.6667,6.16667 86,5.5C 87.5971,6.88472 89.4305,7.55138 91.5,7.5C 91.5,35.1667 91.5,62.8333 91.5,90.5C 101.067,92.2309 107.4,97.7309 110.5,107C 113.817,107.498 117.15,107.665 120.5,107.5C 120.5,111.167 120.5,114.833 120.5,118.5C 117.102,118.18 113.768,118.513 110.5,119.5C 105.618,133.185 95.9514,138.685 81.5,136C 72.738,132.905 67.0714,126.905 64.5,118C 46.5031,117.5 28.5031,117.333 10.5,117.5C 10.5,80.8333 10.5,44.1667 10.5,7.5C 12.4832,7.84316 13.8166,7.17649 14.5,5.5 Z"/></g>
<g><path style="opacity:1" fill="#050505" d="M 70.5,8.5 C 71.7569,10.368 71.4236,12.0347 69.5,13.5C 71.1667,14.8333 72.8333,14.8333 74.5,13.5C 73.6906,11.9291 73.3573,10.2624 73.5,8.5C 78.4633,8.10239 79.4633,9.76906 76.5,13.5C 78.1667,14.8333 79.8333,14.8333 81.5,13.5C 80.7542,12.2638 80.4208,10.9305 80.5,9.5C 81.8333,9.5 83.1667,9.5 84.5,9.5C 84.5,10.5 84.5,11.5 84.5,12.5C 83.9569,12.56 83.6236,12.8933 83.5,13.5C 85.1667,14.8333 86.8333,14.8333 88.5,13.5C 87.7542,12.2638 87.4208,10.9305 87.5,9.5C 89.4913,36.146 90.158,63.146 89.5,90.5C 86.9407,90.1984 84.6074,90.5318 82.5,91.5C 74.7362,93.4697 69.2362,98.1363 66,105.5C 65.5017,108.817 65.335,112.15 65.5,115.5C 47.8333,115.5 30.1667,115.5 12.5,115.5C 12.5,79.8333 12.5,44.1667 12.5,8.5C 13.5,8.5 14.5,8.5 15.5,8.5C 15.6427,10.2624 15.3094,11.9291 14.5,13.5C 15.8333,14.8333 17.1667,14.8333 18.5,13.5C 16.7639,9.56002 18.0972,7.89335 22.5,8.5C 22.6427,10.2624 22.3094,11.9291 21.5,13.5C 22.8333,14.8333 24.1667,14.8333 25.5,13.5C 23.7639,9.56002 25.0972,7.89335 29.5,8.5C 29.1667,10.5 28.8333,12.5 28.5,14.5C 29.9778,14.762 31.3112,14.4287 32.5,13.5C 30.7639,9.56002 32.0972,7.89335 36.5,8.5C 36.1667,10.5 35.8333,12.5 35.5,14.5C 36.9778,14.762 38.3112,14.4287 39.5,13.5C 38.6906,11.9291 38.3573,10.2624 38.5,8.5C 40.1667,8.5 41.8333,8.5 43.5,8.5C 43.1667,10.5 42.8333,12.5 42.5,14.5C 43.9778,14.762 45.3112,14.4287 46.5,13.5C 45.6906,11.9291 45.3573,10.2624 45.5,8.5C 47.1667,8.5 48.8333,8.5 50.5,8.5C 50.1667,10.5 49.8333,12.5 49.5,14.5C 50.9778,14.762 52.3112,14.4287 53.5,13.5C 52.6906,11.9291 52.3573,10.2624 52.5,8.5C 54.288,8.21478 55.9547,8.54811 57.5,9.5C 56.6906,11.0709 56.3573,12.7376 56.5,14.5C 57.9778,14.762 59.3112,14.4287 60.5,13.5C 59.6906,11.9291 59.3573,10.2624 59.5,8.5C 61.1667,8.5 62.8333,8.5 64.5,8.5C 64.6168,10.4835 63.9501,12.1502 62.5,13.5C 64.1667,14.8333 65.8333,14.8333 67.5,13.5C 66.6906,11.9291 66.3573,10.2624 66.5,8.5C 67.8333,8.5 69.1667,8.5 70.5,8.5 Z"/></g>
<g><path style="opacity:1" fill="#444444" d="M 87.5,9.5 C 88.209,8.59603 89.209,8.26269 90.5,8.5C 90.5,36.1667 90.5,63.8333 90.5,91.5C 87.8333,91.5 85.1667,91.5 82.5,91.5C 84.6074,90.5318 86.9407,90.1984 89.5,90.5C 90.158,63.146 89.4913,36.146 87.5,9.5 Z"/></g>
<g><path style="opacity:1" fill="#656565" d="M 80.5,9.5 C 82.2646,8.53862 84.2646,8.20528 86.5,8.5C 86.8432,10.4832 86.1765,11.8166 84.5,12.5C 84.5,11.5 84.5,10.5 84.5,9.5C 83.1667,9.5 81.8333,9.5 80.5,9.5 Z"/></g>
<g><path style="opacity:1" fill="#aeaeae" d="M 70.5,8.5 C 71.5,8.5 72.5,8.5 73.5,8.5C 73.3573,10.2624 73.6906,11.9291 74.5,13.5C 72.8333,14.8333 71.1667,14.8333 69.5,13.5C 71.4236,12.0347 71.7569,10.368 70.5,8.5 Z"/></g>
<g><path style="opacity:1" fill="#eaeaea" d="M 22.5,37.5 C 30.2721,36.2656 32.6055,39.099 29.5,46C 21.7798,48.0988 19.4465,45.2655 22.5,37.5 Z"/></g>
<g><path style="opacity:1" fill="#fdfdfd" d="M 35.5,38.5 C 50.8333,38.5 66.1667,38.5 81.5,38.5C 81.5,40.8333 81.5,43.1667 81.5,45.5C 66.1667,45.5 50.8333,45.5 35.5,45.5C 35.5,43.1667 35.5,40.8333 35.5,38.5 Z"/></g>
<g><path style="opacity:1" fill="#f7f7f7" d="M 23.5,56.5 C 30.6275,56.7063 32.2942,59.873 28.5,66C 22.4983,66.9931 20.3317,64.4931 22,58.5C 22.7172,57.9558 23.2172,57.2891 23.5,56.5 Z"/></g>
<g><path style="opacity:1" fill="#ededed" d="M 35.5,58.5 C 50.8333,58.5 66.1667,58.5 81.5,58.5C 81.5,60.8333 81.5,63.1667 81.5,65.5C 66.1667,65.5 50.8333,65.5 35.5,65.5C 35.5,63.1667 35.5,60.8333 35.5,58.5 Z"/></g>
<g><path style="opacity:1" fill="#f1f1f1" d="M 24.5,76.5 C 30.3347,77.333 31.6681,80.1663 28.5,85C 23,86.1667 20.8333,84 22,78.5C 22.9947,77.9341 23.828,77.2674 24.5,76.5 Z"/></g>
<g><path style="opacity:1" fill="#bfbfbf" d="M 81.5,78.5 C 66.5,78.5 51.5,78.5 36.5,78.5C 36.5,80.5 36.5,82.5 36.5,84.5C 35.5318,82.3926 35.1984,80.0593 35.5,77.5C 51.0091,77.1705 66.3424,77.5038 81.5,78.5 Z"/></g>
<g><path style="opacity:1" fill="#fefffe" d="M 81.5,78.5 C 81.5,80.5 81.5,82.5 81.5,84.5C 66.5,84.5 51.5,84.5 36.5,84.5C 36.5,82.5 36.5,80.5 36.5,78.5C 51.5,78.5 66.5,78.5 81.5,78.5 Z"/></g>
<g><path style="opacity:1" fill="#0f0f0f" d="M 80.5,94.5 C 92.4726,91.8062 101.139,95.8062 106.5,106.5C 104.833,107.833 103.167,107.833 101.5,106.5C 93.5131,95.3373 84.6798,94.6706 75,104.5C 70.0668,115.135 72.9001,122.968 83.5,128C 92.0145,129.576 98.3478,126.576 102.5,119C 103.833,118.333 105.167,118.333 106.5,119C 101.691,129.906 93.3579,134.239 81.5,132C 68.5306,124.969 65.364,114.802 72,101.5C 74.4412,98.5464 77.2745,96.2131 80.5,94.5 Z"/></g>
<g><path style="opacity:1" fill="#050505" d="M 88.5,103.5 C 89.5,103.5 90.5,103.5 91.5,103.5C 91.6766,105.981 90.6766,107.814 88.5,109C 98.1609,109.5 107.828,109.666 117.5,109.5C 117.5,111.833 117.5,114.167 117.5,116.5C 107.828,116.334 98.1609,116.5 88.5,117C 90.607,118.264 91.607,120.097 91.5,122.5C 85.931,121.04 81.2644,118.04 77.5,113.5C 81.0094,109.926 84.6761,106.592 88.5,103.5 Z"/></g>
</svg>
