<?xml version="1.0" encoding="UTF-8"?>
<!DOCTYPE svg PUBLIC "-//W3C//DTD SVG 1.1//EN" "http://www.w3.org/Graphics/SVG/1.1/DTD/svg11.dtd">
<svg xmlns="http://www.w3.org/2000/svg" version="1.1" width="103px" height="130px" style="shape-rendering:geometricPrecision; text-rendering:geometricPrecision; image-rendering:optimizeQuality; fill-rule:evenodd; clip-rule:evenodd" xmlns:xlink="http://www.w3.org/1999/xlink">
<g><path style="opacity:0.722" fill="#dddddd" d="M 38.5,7.5 C 37.391,7.55688 36.391,7.89022 35.5,8.5C 33.8333,8.5 32.1667,8.5 30.5,8.5C 30.5,9.5 30.5,10.5 30.5,11.5C 30.1575,13.2252 29.1575,13.7252 27.5,13C 30.1331,11.3111 30.1331,9.81114 27.5,8.5C 26.1667,8.5 24.8333,8.5 23.5,8.5C 22.5,8.5 21.5,8.5 20.5,8.5C 18.8333,8.5 17.1667,8.5 15.5,8.5C 15.3573,10.2624 15.6906,11.9291 16.5,13.5C 15.3112,14.4287 13.9778,14.762 12.5,14.5C 12.8333,12.5 13.1667,10.5 13.5,8.5C 12.5,8.5 11.5,8.5 10.5,8.5C 10.5,45.8333 10.5,83.1667 10.5,120.5C 37.5,120.5 64.5,120.5 91.5,120.5C 92.4985,83.0037 92.8318,45.337 92.5,7.5C 93.4985,45.663 93.8319,83.9964 93.5,122.5C 65.1667,122.5 36.8333,122.5 8.5,122.5C 8.5,84.1667 8.5,45.8333 8.5,7.5C 10.5996,7.52276 12.4329,6.85609 14,5.5C 15.3333,6.16667 16.6667,6.83333 18,7.5C 20.3333,4.83333 22.6667,4.83333 25,7.5C 27.3333,4.83333 29.6667,4.83333 32,7.5C 33.3333,6.83333 34.6667,6.16667 36,5.5C 37.301,5.63874 38.1344,6.30541 38.5,7.5 Z"/></g>
<g><path style="opacity:0.816" fill="#c4c4c4" d="M 92.5,7.5 C 92.8318,45.337 92.4985,83.0037 91.5,120.5C 92.1605,82.8184 91.4938,45.4851 89.5,8.5C 88.5,8.5 87.5,8.5 86.5,8.5C 84.8333,8.5 83.1667,8.5 81.5,8.5C 81.8333,10.5 82.1667,12.5 82.5,14.5C 81.1667,14.5 79.8333,14.5 78.5,14.5C 78.8333,12.5 79.1667,10.5 79.5,8.5C 77.8333,8.5 76.1667,8.5 74.5,8.5C 74.8333,10.5 75.1667,12.5 75.5,14.5C 74.1667,14.5 72.8333,14.5 71.5,14.5C 72.1079,13.2003 72.7745,11.8669 73.5,10.5C 73.2528,9.28665 72.5862,8.61998 71.5,8.5C 70.1667,8.5 68.8333,8.5 67.5,8.5C 66.5,8.5 65.5,8.5 64.5,8.5C 62.8333,8.5 61.1667,8.5 59.5,8.5C 59.8333,10.5 60.1667,12.5 60.5,14.5C 59.1667,14.5 57.8333,14.5 56.5,14.5C 56.8333,12.5 57.1667,10.5 57.5,8.5C 55.8333,8.5 54.1667,8.5 52.5,8.5C 52.8333,10.5 53.1667,12.5 53.5,14.5C 51.8333,14.5 50.1667,14.5 48.5,14.5C 48.5,13.5 48.5,12.5 48.5,11.5C 50.9418,11.8808 51.6085,11.2141 50.5,9.5C 48.9547,8.54811 47.288,8.21478 45.5,8.5C 45.8333,10.5 46.1667,12.5 46.5,14.5C 44.8333,14.5 43.1667,14.5 41.5,14.5C 41.8333,12.5 42.1667,10.5 42.5,8.5C 40.8333,8.5 39.1667,8.5 37.5,8.5C 37.3573,10.2624 37.6906,11.9291 38.5,13.5C 37.3112,14.4287 35.9778,14.762 34.5,14.5C 34.8333,12.5 35.1667,10.5 35.5,8.5C 36.391,7.89022 37.391,7.55688 38.5,7.5C 40.2769,7.21373 41.9436,6.54707 43.5,5.5C 44.7412,6.03724 45.9079,6.7039 47,7.5C 49.3333,4.83333 51.6667,4.83333 54,7.5C 56.6715,4.99794 59.3382,4.99794 62,7.5C 64.3333,4.83333 66.6667,4.83333 69,7.5C 71.4548,4.96243 73.9548,4.96243 76.5,7.5C 79.0452,4.96243 81.5452,4.96243 84,7.5C 85.0921,6.7039 86.2588,6.03724 87.5,5.5C 89.0564,6.54707 90.7231,7.21373 92.5,7.5 Z"/></g>
<g><path style="opacity:1" fill="#030303" d="M 20.5,8.5 C 20.1667,10.5 19.8333,12.5 19.5,14.5C 21.1667,14.5 22.8333,14.5 24.5,14.5C 24.1667,12.5 23.8333,10.5 23.5,8.5C 24.8333,8.5 26.1667,8.5 27.5,8.5C 27.1667,10.5 26.8333,12.5 26.5,14.5C 28.1667,14.5 29.8333,14.5 31.5,14.5C 31.7373,13.209 31.404,12.209 30.5,11.5C 30.5,10.5 30.5,9.5 30.5,8.5C 32.1667,8.5 33.8333,8.5 35.5,8.5C 35.1667,10.5 34.8333,12.5 34.5,14.5C 35.9778,14.762 37.3112,14.4287 38.5,13.5C 37.6906,11.9291 37.3573,10.2624 37.5,8.5C 39.1667,8.5 40.8333,8.5 42.5,8.5C 42.1667,10.5 41.8333,12.5 41.5,14.5C 43.1667,14.5 44.8333,14.5 46.5,14.5C 46.1667,12.5 45.8333,10.5 45.5,8.5C 47.288,8.21478 48.9547,8.54811 50.5,9.5C 51.6085,11.2141 50.9418,11.8808 48.5,11.5C 48.5,12.5 48.5,13.5 48.5,14.5C 50.1667,14.5 51.8333,14.5 53.5,14.5C 53.1667,12.5 52.8333,10.5 52.5,8.5C 54.1667,8.5 55.8333,8.5 57.5,8.5C 57.1667,10.5 56.8333,12.5 56.5,14.5C 57.8333,14.5 59.1667,14.5 60.5,14.5C 60.1667,12.5 59.8333,10.5 59.5,8.5C 61.1667,8.5 62.8333,8.5 64.5,8.5C 64.1667,10.5 63.8333,12.5 63.5,14.5C 65.1667,14.5 66.8333,14.5 68.5,14.5C 68.1667,12.5 67.8333,10.5 67.5,8.5C 68.8333,8.5 70.1667,8.5 71.5,8.5C 70.7093,10.6907 70.7093,12.6907 71.5,14.5C 72.8333,14.5 74.1667,14.5 75.5,14.5C 75.1667,12.5 74.8333,10.5 74.5,8.5C 76.1667,8.5 77.8333,8.5 79.5,8.5C 79.1667,10.5 78.8333,12.5 78.5,14.5C 79.8333,14.5 81.1667,14.5 82.5,14.5C 82.1667,12.5 81.8333,10.5 81.5,8.5C 83.1667,8.5 84.8333,8.5 86.5,8.5C 86.1667,10.5 85.8333,12.5 85.5,14.5C 87.1667,14.5 88.8333,14.5 90.5,14.5C 90.1667,12.5 89.8333,10.5 89.5,8.5C 91.4938,45.4851 92.1605,82.8184 91.5,120.5C 64.5,120.5 37.5,120.5 10.5,120.5C 10.5,83.1667 10.5,45.8333 10.5,8.5C 11.5,8.5 12.5,8.5 13.5,8.5C 13.1667,10.5 12.8333,12.5 12.5,14.5C 13.9778,14.762 15.3112,14.4287 16.5,13.5C 15.6906,11.9291 15.3573,10.2624 15.5,8.5C 17.1667,8.5 18.8333,8.5 20.5,8.5 Z"/></g>
<g><path style="opacity:1" fill="#a5a5a5" d="M 20.5,8.5 C 21.5,8.5 22.5,8.5 23.5,8.5C 23.8333,10.5 24.1667,12.5 24.5,14.5C 22.8333,14.5 21.1667,14.5 19.5,14.5C 19.8333,12.5 20.1667,10.5 20.5,8.5 Z"/></g>
<g><path style="opacity:1" fill="#939393" d="M 27.5,8.5 C 30.1331,9.81114 30.1331,11.3111 27.5,13C 29.1575,13.7252 30.1575,13.2252 30.5,11.5C 31.404,12.209 31.7373,13.209 31.5,14.5C 29.8333,14.5 28.1667,14.5 26.5,14.5C 26.8333,12.5 27.1667,10.5 27.5,8.5 Z"/></g>
<g><path style="opacity:1" fill="#9c9c9c" d="M 64.5,8.5 C 65.5,8.5 66.5,8.5 67.5,8.5C 67.8333,10.5 68.1667,12.5 68.5,14.5C 66.8333,14.5 65.1667,14.5 63.5,14.5C 63.8333,12.5 64.1667,10.5 64.5,8.5 Z"/></g>
<g><path style="opacity:1" fill="#a2a2a2" d="M 86.5,8.5 C 87.5,8.5 88.5,8.5 89.5,8.5C 89.8333,10.5 90.1667,12.5 90.5,14.5C 88.8333,14.5 87.1667,14.5 85.5,14.5C 85.8333,12.5 86.1667,10.5 86.5,8.5 Z"/></g>
<g><path style="opacity:1" fill="#6f6f6f" d="M 71.5,8.5 C 72.5862,8.61998 73.2528,9.28665 73.5,10.5C 72.7745,11.8669 72.1079,13.2003 71.5,14.5C 70.7093,12.6907 70.7093,10.6907 71.5,8.5 Z"/></g>
<g><path style="opacity:1" fill="#f4f4f4" d="M 29.5,36.5 C 42.6571,36.1024 47.8237,42.4358 45,55.5C 41.8796,62.974 36.3796,65.474 28.5,63C 26.0833,61.3374 24.25,59.1707 23,56.5C 20.6116,48.0936 22.7783,41.4269 29.5,36.5 Z"/></g>
<g><path style="opacity:1" fill="#f6f6f6" d="M 60.5,36.5 C 63.1873,36.3359 65.854,36.5026 68.5,37C 59.5388,54.4222 50.7055,71.9222 42,89.5C 39.5341,90.7766 37.0341,90.7766 34.5,89.5C 43.4498,71.9343 52.1165,54.2676 60.5,36.5 Z"/></g>
<g><path style="opacity:1" fill="#111111" d="M 32.5,42.5 C 36.4655,43.2224 38.1322,45.7224 37.5,50C 38.1704,54.8846 36.1704,57.3846 31.5,57.5C 29.8562,52.2487 30.1896,47.2487 32.5,42.5 Z"/></g>
<g><path style="opacity:1" fill="#f4f4f4" d="M 63.5,63.5 C 76.8085,62.987 81.9752,69.3203 79,82.5C 76.5167,90.0792 71.35,92.5792 63.5,90C 61,88.8333 59.1667,87 58,84.5C 54.7536,75.9804 56.587,68.9804 63.5,63.5 Z"/></g>
<g><path style="opacity:1" fill="#131313" d="M 66.5,69.5 C 68.451,69.2267 69.951,69.8934 71,71.5C 71.6292,75.8706 71.4625,80.204 70.5,84.5C 67.7615,85.0352 65.9282,84.0352 65,81.5C 64.0805,77.2686 64.5805,73.2686 66.5,69.5 Z"/></g>
</svg>
