<?xml version="1.0" encoding="UTF-8"?>
<!DOCTYPE svg PUBLIC "-//W3C//DTD SVG 1.1//EN" "http://www.w3.org/Graphics/SVG/1.1/DTD/svg11.dtd">
<svg xmlns="http://www.w3.org/2000/svg" version="1.1" width="145px" height="130px" style="shape-rendering:geometricPrecision; text-rendering:geometricPrecision; image-rendering:optimizeQuality; fill-rule:evenodd; clip-rule:evenodd" xmlns:xlink="http://www.w3.org/1999/xlink">
<g><path style="opacity:0.959" fill="#fbfbfb" d="M 86.5,2.5 C 85.8902,3.39105 85.5569,4.39105 85.5,5.5C 84.5206,8.62482 84.1872,11.9581 84.5,15.5C 80.9581,15.1872 77.6248,15.5206 74.5,16.5C 71.4869,17.3559 70.8203,19.1892 72.5,22C 76.8206,22.499 81.1539,22.6657 85.5,22.5C 85.5,26.8333 85.5,31.1667 85.5,35.5C 87.7659,35.8588 89.5993,35.1922 91,33.5C 91.4986,29.8484 91.6653,26.1817 91.5,22.5C 96.3999,22.9672 101.067,22.3006 105.5,20.5C 105.251,29.3554 101.251,35.6887 93.5,39.5C 75.3288,41.6612 66.9955,33.6612 68.5,15.5C 71.6097,7.41754 77.6097,3.0842 86.5,2.5 Z"/></g>
<g><path style="opacity:0.998" fill="#0b0b0b" d="M 86.5,2.5 C 87.9587,2.43255 89.2921,2.76589 90.5,3.5C 91.3726,7.76846 91.7059,12.1018 91.5,16.5C 95.9315,16.2307 100.265,16.564 104.5,17.5C 105.11,18.391 105.443,19.391 105.5,20.5C 101.067,22.3006 96.3999,22.9672 91.5,22.5C 91.6653,26.1817 91.4986,29.8484 91,33.5C 89.5993,35.1922 87.7659,35.8588 85.5,35.5C 85.5,31.1667 85.5,26.8333 85.5,22.5C 81.1539,22.6657 76.8206,22.499 72.5,22C 70.8203,19.1892 71.4869,17.3559 74.5,16.5C 78.1667,16.5 81.8333,16.5 85.5,16.5C 85.5,12.8333 85.5,9.16667 85.5,5.5C 85.5569,4.39105 85.8902,3.39105 86.5,2.5 Z"/></g>
<g><path style="opacity:0.897" fill="#f9f9f9" d="M 90.5,3.5 C 98.1667,5.16667 102.833,9.83333 104.5,17.5C 100.265,16.564 95.9315,16.2307 91.5,16.5C 91.7059,12.1018 91.3726,7.76846 90.5,3.5 Z"/></g>
<g><path style="opacity:0.983" fill="#050505" d="M 68.5,15.5 C 66.9955,33.6612 75.3288,41.6612 93.5,39.5C 93.6666,59.8361 93.5,80.1694 93,100.5C 90.4013,108.766 84.9013,113.932 76.5,116C 60.1667,116.667 43.8333,116.667 27.5,116C 19.073,113.905 13.573,108.739 11,100.5C 10.3333,77.5 10.3333,54.5 11,31.5C 13.5,23.6667 18.6667,18.5 26.5,16C 40.496,15.5001 54.496,15.3334 68.5,15.5 Z"/></g>
<g><path style="opacity:1" fill="#a7a7a7" d="M 85.5,5.5 C 85.5,9.16667 85.5,12.8333 85.5,16.5C 81.8333,16.5 78.1667,16.5 74.5,16.5C 77.6248,15.5206 80.9581,15.1872 84.5,15.5C 84.1872,11.9581 84.5206,8.62482 85.5,5.5 Z"/></g>
<g><path style="opacity:1" fill="#f6f6f6" d="M 25.5,43.5 C 43.1667,43.5 60.8333,43.5 78.5,43.5C 78.5,45.8333 78.5,48.1667 78.5,50.5C 60.8333,50.5 43.1667,50.5 25.5,50.5C 25.5,48.1667 25.5,45.8333 25.5,43.5 Z"/></g>
<g><path style="opacity:1" fill="#fefffe" d="M 25.5,56.5 C 43.1667,56.5 60.8333,56.5 78.5,56.5C 78.5,58.5 78.5,60.5 78.5,62.5C 60.8333,62.5 43.1667,62.5 25.5,62.5C 25.5,60.5 25.5,58.5 25.5,56.5 Z"/></g>
<g><path style="opacity:1" fill="#eeeeee" d="M 25.5,68.5 C 43.1667,68.5 60.8333,68.5 78.5,68.5C 78.5,70.8333 78.5,73.1667 78.5,75.5C 60.8333,75.5 43.1667,75.5 25.5,75.5C 25.5,73.1667 25.5,70.8333 25.5,68.5 Z"/></g>
<g><path style="opacity:1" fill="#f0f0f0" d="M 25.5,81.5 C 43.1667,81.5 60.8333,81.5 78.5,81.5C 78.5,83.8333 78.5,86.1667 78.5,88.5C 60.8333,88.5 43.1667,88.5 25.5,88.5C 25.5,86.1667 25.5,83.8333 25.5,81.5 Z"/></g>
</svg>
