<?xml version="1.0" encoding="UTF-8"?>
<!DOCTYPE svg PUBLIC "-//W3C//DTD SVG 1.1//EN" "http://www.w3.org/Graphics/SVG/1.1/DTD/svg11.dtd">
<svg xmlns="http://www.w3.org/2000/svg" version="1.1" width="103px" height="130px" style="shape-rendering:geometricPrecision; text-rendering:geometricPrecision; image-rendering:optimizeQuality; fill-rule:evenodd; clip-rule:evenodd" xmlns:xlink="http://www.w3.org/1999/xlink">
<g><path style="opacity:0.976" fill="#030303" d="M 26.5,12.5 C 41.5037,12.3334 56.5037,12.5001 71.5,13C 80.2031,14.038 86.3698,18.538 90,26.5C 90.6667,51.5 90.6667,76.5 90,101.5C 86.4719,109.032 80.6386,113.532 72.5,115C 56.8333,115.667 41.1667,115.667 25.5,115C 16.5207,113.353 10.6874,108.186 8,99.5C 7.33333,75.8333 7.33333,52.1667 8,28.5C 11.1102,19.5422 17.2769,14.2088 26.5,12.5 Z"/></g>
<g><path style="opacity:1" fill="#f6f6f6" d="M 22.5,41.5 C 40.5,41.5 58.5,41.5 76.5,41.5C 76.5,43.8333 76.5,46.1667 76.5,48.5C 58.5,48.5 40.5,48.5 22.5,48.5C 22.5,46.1667 22.5,43.8333 22.5,41.5 Z"/></g>
<g><path style="opacity:1" fill="#eeeeee" d="M 22.5,54.5 C 40.5,54.5 58.5,54.5 76.5,54.5C 76.5,56.8333 76.5,59.1667 76.5,61.5C 58.5,61.5 40.5,61.5 22.5,61.5C 22.5,59.1667 22.5,56.8333 22.5,54.5 Z"/></g>
<g><path style="opacity:1" fill="#eeeeee" d="M 22.5,66.5 C 40.5,66.5 58.5,66.5 76.5,66.5C 76.5,68.8333 76.5,71.1667 76.5,73.5C 58.5,73.5 40.5,73.5 22.5,73.5C 22.5,71.1667 22.5,68.8333 22.5,66.5 Z"/></g>
<g><path style="opacity:1" fill="#f6f6f6" d="M 22.5,79.5 C 40.5,79.5 58.5,79.5 76.5,79.5C 76.5,81.8333 76.5,84.1667 76.5,86.5C 58.5,86.5 40.5,86.5 22.5,86.5C 22.5,84.1667 22.5,81.8333 22.5,79.5 Z"/></g>
</svg>
