<?xml version="1.0" encoding="UTF-8"?>
<!DOCTYPE svg PUBLIC "-//W3C//DTD SVG 1.1//EN" "http://www.w3.org/Graphics/SVG/1.1/DTD/svg11.dtd">
<svg xmlns="http://www.w3.org/2000/svg" version="1.1" width="145px" height="130px" style="shape-rendering:geometricPrecision; text-rendering:geometricPrecision; image-rendering:optimizeQuality; fill-rule:evenodd; clip-rule:evenodd" xmlns:xlink="http://www.w3.org/1999/xlink">
<g><path style="opacity:0.783" fill="#eeeeee" d="M 69.5,15.5 C 78.8845,14.8948 86.3845,18.2282 92,25.5C 93.1094,23.1853 94.9427,21.6853 97.5,21C 119.069,17.9472 127.569,27.1139 123,48.5C 117.243,57.5354 109.076,60.7021 98.5,58C 96.2379,56.9532 94.0712,55.7865 92,54.5C 83.2514,62.1454 73.4181,63.9787 62.5,60C 59.6387,58.1676 57.1387,56.0009 55,53.5C 47.8582,58.7216 40.0249,59.8882 31.5,57C 21.1922,49.7109 18.6922,40.2109 24,28.5C 30.4496,20.3499 38.6163,17.8499 48.5,21C 51.0573,21.6853 52.8906,23.1853 54,25.5C 57.8248,20.009 62.9915,16.6756 69.5,15.5 Z"/></g>
<g><path style="opacity:1" fill="#030303" d="M 66.5,18.5 C 87.3218,17.4827 95.8218,27.1493 92,47.5C 86.4822,57.6718 77.9822,61.5052 66.5,59C 52.4998,52.1575 48.8331,41.6575 55.5,27.5C 58.6465,23.7739 62.3131,20.7739 66.5,18.5 Z"/></g>
<g><path style="opacity:1" fill="#030303" d="M 34.5,22.5 C 38.1817,22.3347 41.8484,22.5014 45.5,23C 47.779,23.4728 49.779,24.4728 51.5,26C 46.1915,34.8006 46.1915,43.6339 51.5,52.5C 40.7149,59.3534 31.8815,57.3534 25,46.5C 21.8044,35.9019 24.9711,27.9019 34.5,22.5 Z"/></g>
<g><path style="opacity:1" fill="#040404" d="M 98.5,22.5 C 116.66,20.8207 124.16,28.8207 121,46.5C 114.217,57.2072 105.384,59.2072 94.5,52.5C 99.8085,43.6339 99.8085,34.8006 94.5,26C 96.0931,25.0513 97.4264,23.8846 98.5,22.5 Z"/></g>
<g><path style="opacity:0.742" fill="#ebebeb" d="M 31.5,61.5 C 37.5092,61.3338 43.5092,61.5005 49.5,62C 53.5985,62.5471 56.9319,64.3805 59.5,67.5C 68.6972,64.8485 77.8638,64.8485 87,67.5C 89.2678,64.2775 92.4345,62.4442 96.5,62C 121.459,58.4581 134.459,69.2914 135.5,94.5C 126.5,94.5 117.5,94.5 108.5,94.5C 109.138,97.7626 109.138,100.929 108.5,104C 84.8333,104.667 61.1667,104.667 37.5,104C 37.0712,100.953 37.0712,97.7864 37.5,94.5C 28.5,94.5 19.5,94.5 10.5,94.5C 10.2534,78.6156 17.2534,67.6156 31.5,61.5 Z"/></g>
<g><path style="opacity:1" fill="#040404" d="M 32.5,63.5 C 36.8461,63.3343 41.1794,63.501 45.5,64C 48.7896,64.2532 51.7896,65.2532 54.5,67C 45.7231,72.6219 39.7231,80.4552 36.5,90.5C 28.5208,91.6649 20.5208,91.8316 12.5,91C 13.9607,77.8651 20.6274,68.6984 32.5,63.5 Z"/></g>
<g><path style="opacity:1" fill="#040404" d="M 97.5,63.5 C 118.622,61.3032 130.622,70.6365 133.5,91.5C 125.472,91.831 117.472,91.4977 109.5,90.5C 106.277,80.4552 100.277,72.6219 91.5,67C 93.4319,65.5415 95.4319,64.3748 97.5,63.5 Z"/></g>
<g><path style="opacity:1" fill="#020202" d="M 67.5,67.5 C 91.6335,66.0663 104.633,77.3996 106.5,101.5C 84.1667,101.5 61.8333,101.5 39.5,101.5C 40.6774,83.0234 50.0107,71.69 67.5,67.5 Z"/></g>
</svg>
