<?xml version="1.0" encoding="UTF-8"?>
<!DOCTYPE svg PUBLIC "-//W3C//DTD SVG 1.1//EN" "http://www.w3.org/Graphics/SVG/1.1/DTD/svg11.dtd">
<svg xmlns="http://www.w3.org/2000/svg" version="1.1" width="143px" height="131px" style="shape-rendering:geometricPrecision; text-rendering:geometricPrecision; image-rendering:optimizeQuality; fill-rule:evenodd; clip-rule:evenodd" xmlns:xlink="http://www.w3.org/1999/xlink">
<g><path style="opacity:0.89" fill="#000000" d="M 69.5,5.5 C 85.0778,5.7064 97.9111,11.7064 108,23.5C 110.712,28.7564 109.212,31.5897 103.5,32C 99.5342,29.036 95.8675,25.7026 92.5,22C 72.1113,10.8467 54.4446,14.18 39.5,32C 33.8292,32.1338 31.9958,29.6338 34,24.5C 42.9762,12.7628 54.8095,6.42945 69.5,5.5 Z"/></g>
<g><path style="opacity:0.945" fill="#000000" d="M 29.5,39.5 C 41.6504,38.816 47.1504,44.4827 46,56.5C 45.1224,59.2154 43.6224,61.5487 41.5,63.5C 45.8575,68.6901 50.0242,74.0234 54,79.5C 54.8959,82.025 54.3959,84.1917 52.5,86C 39.258,86.822 26.0914,86.6554 13,85.5C 11.2759,83.1026 11.2759,80.7693 13,78.5C 17.1667,73.5 21.3333,68.5 25.5,63.5C 20.8192,59.1424 19.3192,53.809 21,47.5C 23.0982,43.8972 25.9315,41.2305 29.5,39.5 Z"/></g>
<g><path style="opacity:0.943" fill="#000000" d="M 109.5,39.5 C 123.103,39.5727 128.103,46.0727 124.5,59C 126.649,60.152 128.482,61.652 130,63.5C 130.667,70.5 130.667,77.5 130,84.5C 129.5,85 129,85.5 128.5,86C 118.167,86.6667 107.833,86.6667 97.5,86C 96.8742,85.2496 96.3742,84.4162 96,83.5C 95.3333,76.8333 95.3333,70.1667 96,63.5C 97.518,61.652 99.3513,60.152 101.5,59C 98.2263,50.0489 100.893,43.5489 109.5,39.5 Z"/></g>
<g><path style="opacity:0.89" fill="#000000" d="M 31.5,94.5 C 33.5273,94.3379 35.5273,94.5045 37.5,95C 51.646,115.281 69.646,119.948 91.5,109C 96.8793,105.288 101.213,100.621 104.5,95C 108.74,93.4611 111.407,94.7944 112.5,99C 103.834,115.624 90.0008,124.124 71,124.5C 54.2788,124.308 41.2788,117.308 32,103.5C 30.2814,100.546 30.1147,97.5457 31.5,94.5 Z"/></g>
</svg>
