<?xml version="1.0" encoding="UTF-8"?>
<!DOCTYPE svg PUBLIC "-//W3C//DTD SVG 1.1//EN" "http://www.w3.org/Graphics/SVG/1.1/DTD/svg11.dtd">
<svg xmlns="http://www.w3.org/2000/svg" version="1.1" width="104px" height="131px" style="shape-rendering:geometricPrecision; text-rendering:geometricPrecision; image-rendering:optimizeQuality; fill-rule:evenodd; clip-rule:evenodd" xmlns:xlink="http://www.w3.org/1999/xlink">
<g><path style="opacity:0.699" fill="#dadada" d="M 90.5,9.5 C 90.5,9.83333 90.5,10.1667 90.5,10.5C 90.1667,10.5 89.8333,10.5 89.5,10.5C 87.1861,11.1787 86.8528,12.512 88.5,14.5C 86.8333,15.8333 85.1667,15.8333 83.5,14.5C 84.2458,13.2638 84.5792,11.9305 84.5,10.5C 83.1667,10.5 81.8333,10.5 80.5,10.5C 80.4208,11.9305 80.7542,13.2638 81.5,14.5C 79.8333,15.8333 78.1667,15.8333 76.5,14.5C 77.2458,13.2638 77.5792,11.9305 77.5,10.5C 76.1667,10.5 74.8333,10.5 73.5,10.5C 73.4208,11.9305 73.7542,13.2638 74.5,14.5C 72.8333,15.8333 71.1667,15.8333 69.5,14.5C 70.2458,13.2638 70.5792,11.9305 70.5,10.5C 69.1667,10.5 67.8333,10.5 66.5,10.5C 66.4208,11.9305 66.7542,13.2638 67.5,14.5C 65.8333,15.8333 64.1667,15.8333 62.5,14.5C 63.8532,13.4763 64.5198,12.143 64.5,10.5C 62.8333,10.5 61.1667,10.5 59.5,10.5C 59.4208,11.9305 59.7542,13.2638 60.5,14.5C 59.3112,15.4287 57.9778,15.762 56.5,15.5C 56.4208,14.0695 56.7542,12.7362 57.5,11.5C 55.9547,10.5481 54.288,10.2148 52.5,10.5C 52.4208,11.9305 52.7542,13.2638 53.5,14.5C 52.3112,15.4287 50.9778,15.762 49.5,15.5C 49.4208,14.0695 49.7542,12.7362 50.5,11.5C 48.9547,10.5481 47.288,10.2148 45.5,10.5C 45.4208,11.9305 45.7542,13.2638 46.5,14.5C 45.1667,15.8333 43.8333,15.8333 42.5,14.5C 43.2458,13.2638 43.5792,11.9305 43.5,10.5C 41.8333,10.5 40.1667,10.5 38.5,10.5C 38.4208,11.9305 38.7542,13.2638 39.5,14.5C 38.1667,15.8333 36.8333,15.8333 35.5,14.5C 36.2458,13.2638 36.5792,11.9305 36.5,10.5C 34.8333,10.5 33.1667,10.5 31.5,10.5C 31.4208,11.9305 31.7542,13.2638 32.5,14.5C 31.1667,15.8333 29.8333,15.8333 28.5,14.5C 29.2458,13.2638 29.5792,11.9305 29.5,10.5C 27.8333,10.5 26.1667,10.5 24.5,10.5C 24.4208,11.9305 24.7542,13.2638 25.5,14.5C 24.1667,15.8333 22.8333,15.8333 21.5,14.5C 22.2458,13.2638 22.5792,11.9305 22.5,10.5C 20.5,10.5 18.5,10.5 16.5,10.5C 16.4802,12.143 17.1468,13.4763 18.5,14.5C 17.1667,15.8333 15.8333,15.8333 14.5,14.5C 15.2458,13.2638 15.5792,11.9305 15.5,10.5C 14.5,10.5 13.5,10.5 12.5,10.5C 12.5,45.8333 12.5,81.1667 12.5,116.5C 12.5,116.833 12.5,117.167 12.5,117.5C 11.5016,81.6705 11.1682,45.6705 11.5,9.5C 13.1998,9.37394 14.6998,8.70728 16,7.5C 17.3333,8.16667 18.6667,8.83333 20,9.5C 21,8.83333 22,8.16667 23,7.5C 24.3333,8.16667 25.6667,8.83333 27,9.5C 28,8.83333 29,8.16667 30,7.5C 31.3333,8.16667 32.6667,8.83333 34,9.5C 36,6.83333 38,6.83333 40,9.5C 41.3333,8.83333 42.6667,8.16667 44,7.5C 45,8.16667 46,8.83333 47,9.5C 48.3333,8.83333 49.6667,8.16667 51,7.5C 52,8.16667 53,8.83333 54,9.5C 55.3333,8.83333 56.6667,8.16667 58,7.5C 59,8.16667 60,8.83333 61,9.5C 62.3333,8.83333 63.6667,8.16667 65,7.5C 66,8.16667 67,8.83333 68,9.5C 69.3333,8.83333 70.6667,8.16667 72,7.5C 73,8.16667 74,8.83333 75,9.5C 76.3333,8.83333 77.6667,8.16667 79,7.5C 80,8.16667 81,8.83333 82,9.5C 83.3333,8.83333 84.6667,8.16667 86,7.5C 87.3002,8.70728 88.8002,9.37394 90.5,9.5 Z"/></g>
<g><path style="opacity:0.723" fill="#fefffe" d="M 11.5,9.5 C 11.1682,45.6705 11.5016,81.6705 12.5,117.5C 38.5,117.5 64.5,117.5 90.5,117.5C 90.5,81.8333 90.5,46.1667 90.5,10.5C 90.5,10.1667 90.5,9.83333 90.5,9.5C 91.4984,45.6628 91.8318,81.9962 91.5,118.5C 64.5,118.5 37.5,118.5 10.5,118.5C 10.1682,81.9962 10.5016,45.6628 11.5,9.5 Z"/></g>
<g><path style="opacity:1" fill="#040404" d="M 89.5,10.5 C 89.5,45.8333 89.5,81.1667 89.5,116.5C 63.8333,116.5 38.1667,116.5 12.5,116.5C 12.5,81.1667 12.5,45.8333 12.5,10.5C 13.5,10.5 14.5,10.5 15.5,10.5C 15.5792,11.9305 15.2458,13.2638 14.5,14.5C 15.8333,15.8333 17.1667,15.8333 18.5,14.5C 17.1468,13.4763 16.4802,12.143 16.5,10.5C 18.5,10.5 20.5,10.5 22.5,10.5C 22.5792,11.9305 22.2458,13.2638 21.5,14.5C 22.8333,15.8333 24.1667,15.8333 25.5,14.5C 24.7542,13.2638 24.4208,11.9305 24.5,10.5C 26.1667,10.5 27.8333,10.5 29.5,10.5C 29.5792,11.9305 29.2458,13.2638 28.5,14.5C 29.8333,15.8333 31.1667,15.8333 32.5,14.5C 31.7542,13.2638 31.4208,11.9305 31.5,10.5C 33.1667,10.5 34.8333,10.5 36.5,10.5C 36.5792,11.9305 36.2458,13.2638 35.5,14.5C 36.8333,15.8333 38.1667,15.8333 39.5,14.5C 38.7542,13.2638 38.4208,11.9305 38.5,10.5C 40.1667,10.5 41.8333,10.5 43.5,10.5C 43.5792,11.9305 43.2458,13.2638 42.5,14.5C 43.8333,15.8333 45.1667,15.8333 46.5,14.5C 45.7542,13.2638 45.4208,11.9305 45.5,10.5C 47.288,10.2148 48.9547,10.5481 50.5,11.5C 49.7542,12.7362 49.4208,14.0695 49.5,15.5C 50.9778,15.762 52.3112,15.4287 53.5,14.5C 52.7542,13.2638 52.4208,11.9305 52.5,10.5C 54.288,10.2148 55.9547,10.5481 57.5,11.5C 56.7542,12.7362 56.4208,14.0695 56.5,15.5C 57.9778,15.762 59.3112,15.4287 60.5,14.5C 59.7542,13.2638 59.4208,11.9305 59.5,10.5C 61.1667,10.5 62.8333,10.5 64.5,10.5C 64.5198,12.143 63.8532,13.4763 62.5,14.5C 64.1667,15.8333 65.8333,15.8333 67.5,14.5C 66.7542,13.2638 66.4208,11.9305 66.5,10.5C 67.8333,10.5 69.1667,10.5 70.5,10.5C 70.5792,11.9305 70.2458,13.2638 69.5,14.5C 71.1667,15.8333 72.8333,15.8333 74.5,14.5C 73.7542,13.2638 73.4208,11.9305 73.5,10.5C 74.8333,10.5 76.1667,10.5 77.5,10.5C 77.5792,11.9305 77.2458,13.2638 76.5,14.5C 78.1667,15.8333 79.8333,15.8333 81.5,14.5C 80.7542,13.2638 80.4208,11.9305 80.5,10.5C 81.8333,10.5 83.1667,10.5 84.5,10.5C 84.5792,11.9305 84.2458,13.2638 83.5,14.5C 85.1667,15.8333 86.8333,15.8333 88.5,14.5C 86.8528,12.512 87.1861,11.1787 89.5,10.5 Z"/></g>
<g><path style="opacity:1" fill="#f9f9f9" d="M 55.5,57.5 C 50.0247,56.5111 44.358,56.1778 38.5,56.5C 38.7845,58.4147 38.4511,60.0813 37.5,61.5C 32.0454,57.8854 26.712,54.052 21.5,50C 27,45.8333 32.5,41.6667 38,37.5C 38.4935,39.1341 38.6602,40.8008 38.5,42.5C 47.3311,41.9197 55.9978,42.7531 64.5,45C 76.6259,51.0817 82.1259,60.9151 81,74.5C 78.022,89.6498 68.8553,97.3164 53.5,97.5C 53.5,93.1667 53.5,88.8333 53.5,84.5C 66.0618,81.7094 69.8951,74.3761 65,62.5C 62.7146,59.1078 59.548,57.4411 55.5,57.5 Z"/></g>
<g><path style="opacity:1" fill="#424242" d="M 55.5,57.5 C 50.1667,57.5 44.8333,57.5 39.5,57.5C 39.7852,59.288 39.4519,60.9547 38.5,62.5C 37.8933,62.3764 37.56,62.0431 37.5,61.5C 38.4511,60.0813 38.7845,58.4147 38.5,56.5C 44.358,56.1778 50.0247,56.5111 55.5,57.5 Z"/></g>
<g><path style="opacity:1" fill="#414141" d="M 89.5,10.5 C 89.8333,10.5 90.1667,10.5 90.5,10.5C 90.5,46.1667 90.5,81.8333 90.5,117.5C 64.5,117.5 38.5,117.5 12.5,117.5C 12.5,117.167 12.5,116.833 12.5,116.5C 38.1667,116.5 63.8333,116.5 89.5,116.5C 89.5,81.1667 89.5,45.8333 89.5,10.5 Z"/></g>
</svg>
