<?xml version="1.0" encoding="UTF-8"?>
<!DOCTYPE svg PUBLIC "-//W3C//DTD SVG 1.1//EN" "http://www.w3.org/Graphics/SVG/1.1/DTD/svg11.dtd">
<svg xmlns="http://www.w3.org/2000/svg" version="1.1" width="145px" height="130px" style="shape-rendering:geometricPrecision; text-rendering:geometricPrecision; image-rendering:optimizeQuality; fill-rule:evenodd; clip-rule:evenodd" xmlns:xlink="http://www.w3.org/1999/xlink">
<g><path style="opacity:0.897" fill="#000000" d="M 52.5,5.5 C 71.5636,2.79101 87.0636,8.79101 99,23.5C 100.825,28.9859 98.9919,31.4859 93.5,31C 78.004,12.9005 60.004,9.9005 39.5,22C 36.2378,25.9354 32.4045,29.102 28,31.5C 24.3317,30.4965 22.9984,28.1631 24,24.5C 31.3163,14.7674 40.8163,8.4341 52.5,5.5 Z"/></g>
<g><path style="opacity:0.939" fill="#000000" d="M 20.5,38.5 C 32.0602,37.6825 37.5602,43.0158 37,54.5C 36.2739,57.6207 34.7739,60.2873 32.5,62.5C 36.8575,67.6901 41.0242,73.0234 45,78.5C 45.8959,81.025 45.3959,83.1917 43.5,85C 30.5,85.6667 17.5,85.6667 4.5,85C 2.01552,82.7162 1.84886,80.2162 4,77.5C 7.83333,72.5 11.6667,67.5 15.5,62.5C 8.02963,52.3986 9.6963,44.3986 20.5,38.5 Z"/></g>
<g><path style="opacity:0.962" fill="#000000" d="M 100.5,38.5 C 114.356,39.0364 119.356,46.0364 115.5,59.5C 119.568,59.9307 121.568,62.264 121.5,66.5C 120.942,72.7298 120.276,78.8965 119.5,85C 109.167,85.6667 98.8333,85.6667 88.5,85C 88,84.5 87.5,84 87,83.5C 86.3333,76.1667 86.3333,68.8333 87,61.5C 88.7183,60.1498 90.5516,58.9832 92.5,58C 88.8317,48.8283 91.4984,42.3283 100.5,38.5 Z"/></g>
<g><path style="opacity:0.893" fill="#000000" d="M 22.5,93.5 C 27.9625,92.7839 31.4625,95.1172 33,100.5C 50.3717,117.55 68.5384,118.55 87.5,103.5C 90.3546,100.48 93.0213,97.3132 95.5,94C 97.5,93.3333 99.5,93.3333 101.5,94C 103.088,98.2926 102.254,102.126 99,105.5C 83.7792,122.598 65.2792,127.431 43.5,120C 33.4495,115.949 25.9495,109.115 21,99.5C 20.5906,97.3049 21.0906,95.3049 22.5,93.5 Z"/></g>
</svg>
