<?xml version="1.0" encoding="UTF-8"?>
<!DOCTYPE svg PUBLIC "-//W3C//DTD SVG 1.1//EN" "http://www.w3.org/Graphics/SVG/1.1/DTD/svg11.dtd">
<svg xmlns="http://www.w3.org/2000/svg" version="1.1" width="143px" height="130px" style="shape-rendering:geometricPrecision; text-rendering:geometricPrecision; image-rendering:optimizeQuality; fill-rule:evenodd; clip-rule:evenodd" xmlns:xlink="http://www.w3.org/1999/xlink">
<g><path style="opacity:0.973" fill="#000000" d="M 13.5,23.5 C 42.1667,23.5 70.8333,23.5 99.5,23.5C 99.5,31.1667 99.5,38.8333 99.5,46.5C 105.509,46.3338 111.509,46.5005 117.5,47C 122.302,54.1024 127.469,60.9357 133,67.5C 134.453,78.0631 134.953,88.7298 134.5,99.5C 130.5,99.5 126.5,99.5 122.5,99.5C 121.769,110.397 115.936,116.064 105,116.5C 94.4532,115.955 88.2865,110.455 86.5,100C 75.505,99.5002 64.505,99.3335 53.5,99.5C 49.8715,115.149 40.5382,119.982 25.5,114C 20.3418,110.515 17.6751,105.682 17.5,99.5C 13.8333,99.5 10.1667,99.5 6.5,99.5C 6.33337,76.4976 6.50004,53.4976 7,30.5C 8.01828,26.9853 10.1849,24.652 13.5,23.5 Z M 99.5,55.5 C 104.214,55.1734 108.88,55.5067 113.5,56.5C 116.643,60.811 119.977,64.9776 123.5,69C 115.507,69.4997 107.507,69.6664 99.5,69.5C 99.5,64.8333 99.5,60.1667 99.5,55.5 Z M 33.5,90.5 C 40.4649,90.961 43.6316,94.6277 43,101.5C 40.4586,106.069 36.6253,107.569 31.5,106C 25.7144,99.8923 26.3811,94.7256 33.5,90.5 Z M 102.5,90.5 C 110.684,90.5366 113.851,94.5366 112,102.5C 109.398,106.212 105.898,107.378 101.5,106C 94.6785,100.43 95.0118,95.2637 102.5,90.5 Z"/></g>
<g><path style="opacity:1" fill="#f7f7f7" d="M 53.5,29.5 C 71.3501,31.522 79.5168,41.522 78,59.5C 74.6493,70.1831 67.4826,76.6831 56.5,79C 51.1771,79.4994 45.8437,79.666 40.5,79.5C 40.762,80.9778 40.4287,82.3112 39.5,83.5C 34.3617,80.1947 29.3617,76.6947 24.5,73C 29.6667,69.1667 34.8333,65.3333 40,61.5C 40.4935,63.1341 40.6602,64.8008 40.5,66.5C 45.8437,66.666 51.1771,66.4994 56.5,66C 64.1729,63.1579 67.0062,57.6579 65,49.5C 62.6205,44.7281 58.7871,42.0615 53.5,41.5C 53.5,37.5 53.5,33.5 53.5,29.5 Z"/></g>
</svg>
